<?xml version="1.0" standalone="no"?>
<!DOCTYPE svg PUBLIC "-//W3C//DTD SVG 20010904//EN"
 "http://www.w3.org/TR/2001/REC-SVG-20010904/DTD/svg10.dtd">
<svg version="1.0" xmlns="http://www.w3.org/2000/svg"
 width="1280.000000pt" height="708.000000pt" viewBox="0 0 1280.000000 708.000000"
 preserveAspectRatio="xMidYMid meet">
<g transform="translate(0.000000,708.000000) scale(0.100000,-0.100000)"
fill="#000000" stroke="none">
<path d="M11306 7071 c-3 -5 -45 -16 -93 -25 -229 -42 -446 -60 -928 -76 -165
-6 -356 -16 -425 -23 -175 -17 -809 -15 -1130 3 -154 9 -430 15 -660 15 l-395
0 -105 -28 c-693 -184 -1131 -465 -1368 -877 -27 -47 -53 -84 -58 -83 -4 0
-23 37 -41 81 -120 301 -392 546 -759 686 -126 47 -430 121 -609 148 -121 18
-863 16 -1155 -3 -287 -19 -1492 -16 -2129 4 -337 11 -481 12 -497 5 -13 -6
-31 -22 -40 -36 -9 -13 -12 -22 -7 -20 88 44 42 42 708 27 795 -18 1749 -17
2125 2 862 43 1292 -7 1690 -197 364 -174 589 -420 685 -749 55 -188 85 -475
85 -804 0 -75 9 -287 20 -471 21 -353 40 -774 65 -1410 30 -776 36 -933 56
-1360 20 -454 43 -874 59 -1095 17 -222 18 -219 -65 -159 -141 101 -368 207
-570 269 -229 69 -425 101 -660 108 -88 3 -142 3 -120 1 22 -2 110 -11 195
-20 208 -20 234 -28 173 -50 -25 -9 -19 -11 47 -17 117 -12 308 -53 437 -96
195 -64 365 -159 490 -275 44 -41 65 -54 80 -50 14 4 28 -2 42 -17 32 -34 27
-58 -16 -75 -33 -14 -40 -14 -79 1 -34 13 -47 25 -61 56 -15 35 -28 45 -121
90 -140 68 -341 133 -507 164 -150 28 -200 31 -189 14 10 -17 -16 -29 -67 -29
-49 0 -74 16 -64 43 9 23 -193 29 -835 25 -321 -2 -703 2 -905 9 -201 8 -736
13 -1255 13 -878 1 -1191 6 -1660 31 -149 8 -234 17 -252 26 -38 19 -59 54
-68 115 -8 50 -8 48 -7 -27 2 -92 -11 -104 -50 -46 -22 33 -23 33 -23 9 0 -14
5 -39 11 -57 9 -24 14 -29 24 -21 9 7 65 7 191 0 233 -14 395 -28 403 -35 17
-17 -42 -25 -199 -25 -96 0 -222 -5 -279 -10 -113 -10 -149 -2 -173 43 -9 16
-11 130 -11 437 l1 415 -15 -389 c-17 -419 -15 -438 32 -494 l25 -29 257 -5
c222 -5 261 -3 283 10 69 43 1682 54 2560 17 197 -8 586 -15 873 -15 513 0
752 -8 980 -34 116 -14 137 -19 123 -33 -16 -16 -285 -25 -771 -26 -286 -1
-509 -3 -495 -5 42 -6 45 -20 5 -28 -60 -11 -844 3 -1103 20 -273 18 -333 34
-137 37 113 2 122 3 65 9 -36 4 -122 8 -192 9 -107 1 -128 -1 -128 -14 0 -16
-36 -28 -71 -23 -15 2 -24 9 -23 19 1 15 -22 17 -195 23 -356 11 -936 16 -911
7 19 -6 21 -10 10 -14 -73 -29 -964 -39 -1078 -12 -81 19 -139 49 -147 76 -17
52 -6 709 20 1199 23 443 25 550 20 870 -11 615 15 1371 76 2209 11 150 18
276 14 279 -3 3 -5 -10 -6 -29 0 -19 -4 -43 -9 -54 -18 -45 -22 45 -17 353 5
307 10 372 28 372 16 0 22 -100 18 -344 -3 -138 -2 -226 2 -196 4 30 12 244
18 475 6 231 15 479 21 550 16 192 40 378 52 393 17 20 69 15 75 -8 3 -11 8
-20 12 -20 10 1 56 38 51 42 -18 13 -213 68 -241 68 -56 0 -66 -15 -89 -134
-39 -207 -51 -405 -59 -987 -4 -305 -10 -559 -13 -565 -20 -33 -32 -311 -33
-784 -1 -519 -15 -1168 -35 -1555 -6 -115 -10 -365 -9 -555 1 -325 -17 -800
-41 -1065 -15 -162 -40 -355 -51 -382 -5 -13 -9 -62 -9 -108 0 -82 1 -84 33
-111 60 -51 144 -83 247 -93 321 -34 589 -44 1355 -52 788 -7 868 -10 1140
-49 270 -38 345 -42 990 -50 478 -6 687 -12 790 -24 253 -28 434 -36 881 -36
422 0 616 -8 769 -31 53 -7 88 -21 145 -54 114 -66 199 -104 276 -120 102 -22
130 -19 208 20 133 66 248 77 521 50 202 -19 854 -43 2080 -75 1739 -45 2708
-90 3215 -147 96 -11 150 53 150 180 0 40 -4 77 -9 83 -5 5 -26 73 -45 152
-47 184 -76 252 -109 252 -33 0 -51 -24 -43 -55 5 -18 2 -27 -8 -31 -14 -5
-14 -8 -1 -20 19 -20 45 -108 45 -155 0 -52 -22 -71 -74 -64 -81 11 -249 25
-280 24 -33 -1 267 -37 322 -38 21 -1 32 4 32 13 0 7 6 19 14 25 43 36 93
-138 62 -213 -28 -67 -62 -37 -66 59 l-2 40 -15 -43 c-8 -23 -23 -47 -34 -52
-13 -7 -99 -6 -276 4 -1165 68 -2512 110 -4698 146 -681 11 -755 14 -755 30 0
12 41 18 210 28 l145 9 -146 1 c-80 1 -149 5 -153 9 -4 5 9 13 31 20 l38 11
-32 1 c-17 1 -35 6 -38 11 -8 13 34 29 102 37 45 5 55 3 51 -8 -2 -8 -20 -20
-39 -27 -34 -13 -34 -13 16 -7 28 3 138 16 245 30 602 76 1114 99 2550 116
525 6 1027 15 1115 19 170 9 -97 7 -897 -7 -263 -4 -388 -3 -388 4 0 29 501
53 1880 88 769 20 1063 34 1072 48 12 18 9 59 -7 92 -13 30 -13 29 -14 -27 -1
-51 -3 -58 -23 -62 -13 -3 -205 -10 -428 -16 -996 -27 -2320 -76 -2895 -106
-165 -9 -469 -18 -675 -19 -239 -2 -438 -9 -550 -19 -96 -8 -296 -27 -445 -40
-348 -32 -540 -42 -549 -28 -3 6 2 13 11 16 57 17 1061 153 1158 157 20 1 23
3 11 6 -20 5 -57 2 -631 -58 -209 -22 -393 -38 -410 -37 -28 3 -29 4 -10 14
27 16 226 59 355 78 58 8 238 29 400 46 162 17 367 42 455 55 639 96 1033 132
2210 200 864 50 1455 104 1877 171 53 8 103 14 110 12 7 -2 23 6 36 17 12 11
31 28 42 37 11 10 18 23 15 30 -24 72 -123 596 -255 1353 -99 568 -134 755
-186 999 -22 101 -42 238 -54 366 -11 113 -40 367 -64 565 -78 627 -100 854
-111 1155 -3 87 -11 166 -20 197 -20 66 -67 117 -122 132 -23 6 -44 17 -47 24
-7 16 4 -91 14 -134 l8 -34 1 37 c1 43 12 53 41 38 37 -20 44 -50 51 -240 5
-102 17 -252 28 -335 22 -163 26 -245 12 -245 -10 0 -9 -4 -47 198 -14 78 -30
142 -36 142 -5 0 -16 15 -24 33 -14 31 -14 30 -8 -33 4 -48 2 -61 -6 -48 -21
34 -163 647 -250 1083 -70 352 -75 384 -62 397 16 16 60 -16 77 -55 l14 -32 1
31 c0 41 -34 84 -67 84 -17 0 -38 13 -60 36 -30 32 -33 34 -29 13 200 -908
381 -1773 600 -2874 64 -319 131 -632 150 -697 53 -176 99 -406 161 -798 64
-402 84 -513 126 -690 17 -69 39 -201 50 -295 14 -115 29 -193 46 -240 54
-151 38 -171 -169 -203 -450 -72 -996 -123 -1813 -172 -1188 -71 -1606 -108
-2140 -191 -104 -16 -296 -41 -425 -54 -527 -56 -972 -123 -1270 -190 -85 -19
-169 -35 -186 -35 -20 0 -39 -9 -54 -25 -29 -31 -56 -32 -63 -2 -19 73 -64
491 -87 787 -24 323 -50 1088 -50 1467 0 132 -6 219 -21 320 -17 115 -20 178
-18 378 1 171 -3 279 -14 375 -25 212 -36 420 -47 915 -12 505 -21 689 -46
846 -31 206 -19 361 37 470 46 90 236 296 374 404 356 279 802 441 1302 474
110 8 228 6 463 -5 173 -8 551 -17 840 -21 529 -6 747 1 1090 32 85 8 265 19
400 25 267 12 439 30 568 60 103 24 125 25 159 3 29 -19 27 -8 -5 30 -16 18
-106 25 -116 8z m766 -2694 c20 -79 52 -327 43 -335 -15 -15 -39 69 -71 248
-28 156 -6 222 28 87z m-8824 -3825 c50 -28 24 -35 -100 -27 -129 7 -174 18
-162 36 9 15 231 7 262 -9z m1210 -4 c-5 -16 -41 -22 -74 -14 -42 11 -26 26
27 26 36 0 49 -4 47 -12z m2407 2 c8 -12 -21 -25 -104 -45 -73 -19 -135 -47
-169 -78 -26 -24 -46 -13 -40 24 5 38 59 66 155 79 49 7 97 16 108 21 28 11
43 11 50 -1z m210 1 c3 -6 -3 -14 -13 -20 -26 -14 -190 -37 -199 -28 -14 15
16 29 88 42 92 16 116 18 124 6z m-1410 -21 c0 -24 -79 -21 -83 3 -3 16 2 18
40 15 30 -2 43 -7 43 -18z m504 -59 c22 -14 3 -31 -34 -31 -35 0 -51 12 -40
30 8 12 55 13 74 1z m549 -17 c32 -9 27 -19 -16 -32 -21 -7 -53 -28 -71 -48
-41 -45 -61 -34 -36 20 28 58 63 76 123 60z m0 -92 c5 -31 -25 -82 -48 -82
-27 0 -26 35 0 78 22 36 43 38 48 4z m-280 -19 c2 -7 -4 -16 -12 -19 -19 -7
-49 14 -40 28 8 13 46 6 52 -9z m388 -15 c-3 -13 -6 -30 -6 -39 0 -9 -8 -27
-19 -40 -16 -20 -21 -21 -35 -10 -23 19 -20 45 10 80 31 37 59 42 50 9z m931
-55 c5 -13 -81 -26 -141 -21 -50 4 -59 25 -14 31 62 8 151 2 155 -10z m-1126
-24 c21 -5 40 -16 43 -25 5 -14 -1 -16 -48 -12 -55 5 -111 31 -101 48 6 9 38
6 106 -11z m3719 -34 c102 -3 336 -12 520 -20 184 -8 571 -23 860 -35 289 -11
535 -23 548 -26 28 -6 28 -20 1 -35 -15 -8 -38 -8 -82 0 -63 10 -454 28 -1227
56 -608 22 -959 47 -928 66 7 4 38 6 68 4 30 -3 138 -7 240 -10z"/>
<path d="M700 6820 c-10 -7 6 -10 55 -10 49 0 65 3 55 10 -8 5 -33 10 -55 10
-22 0 -47 -5 -55 -10z"/>
<path d="M11626 6731 c3 -41 12 -91 19 -110 7 -20 16 -67 20 -106 7 -89 43
-329 55 -375 15 -57 2 83 -26 275 -39 265 -40 285 -18 285 16 0 15 4 -9 23
-15 12 -32 36 -37 52 -7 22 -8 11 -4 -44z"/>
<path d="M632 6769 c-5 -13 -15 -136 -21 -274 -25 -530 -94 -1756 -136 -2420
-8 -126 -14 -252 -13 -280 2 -87 1 -100 68 1010 34 567 79 1389 90 1645 6 135
15 265 20 290 10 50 5 65 -8 29z"/>
<path d="M857 6658 c-10 -59 -16 -122 -16 -140 1 -18 10 26 20 97 10 72 17
135 16 140 -2 6 -11 -38 -20 -97z"/>
<path d="M11732 6535 c0 -16 2 -22 5 -12 2 9 2 23 0 30 -3 6 -5 -1 -5 -18z"/>
<path d="M11740 6494 c-1 -27 34 -256 38 -246 4 12 -27 244 -34 251 -2 2 -4 0
-4 -5z"/>
<path d="M833 6445 c0 -22 2 -30 4 -17 2 12 2 30 0 40 -3 9 -5 -1 -4 -23z"/>
<path d="M482 6380 c0 -19 2 -27 5 -17 2 9 2 25 0 35 -3 9 -5 1 -5 -18z"/>
<path d="M822 6360 c0 -14 2 -19 5 -12 2 6 2 18 0 25 -3 6 -5 1 -5 -13z"/>
<path d="M462 6116 c-29 -418 -49 -848 -36 -771 7 40 55 916 52 938 -2 12 -9
-63 -16 -167z"/>
<path d="M11782 6185 c0 -16 2 -22 5 -12 2 9 2 23 0 30 -3 6 -5 -1 -5 -18z"/>
<path d="M11792 6110 c0 -14 2 -19 5 -12 2 6 2 18 0 25 -3 6 -5 1 -5 -13z"/>
<path d="M11731 6084 c0 -11 3 -14 6 -6 3 7 2 16 -1 19 -3 4 -6 -2 -5 -13z"/>
<path d="M731 5444 c0 -11 3 -14 6 -6 3 7 2 16 -1 19 -3 4 -6 -2 -5 -13z"/>
<path d="M723 5340 c0 -25 2 -35 4 -22 2 12 2 32 0 45 -2 12 -4 2 -4 -23z"/>
<path d="M711 5255 c-1 -16 -10 -124 -21 -240 -31 -327 -94 -1070 -170 -2020
-74 -926 -98 -1212 -131 -1608 -11 -136 -19 -257 -17 -270 4 -29 26 216 99
1113 70 875 127 1527 135 1554 5 15 8 16 15 5 5 -8 9 -25 9 -38 0 -13 2 -22 4
-20 2 2 9 114 15 249 18 379 30 598 52 947 11 177 19 330 16 340 -3 11 -5 6
-6 -12z"/>
<path d="M411 5184 c0 -11 3 -14 6 -6 3 7 2 16 -1 19 -3 4 -6 -2 -5 -13z"/>
<path d="M332 3840 c-25 -359 -53 -1059 -50 -1250 1 -104 2 -98 9 65 19 451
31 703 45 1002 17 355 15 457 -4 183z"/>
<path d="M445 3585 c-4 -86 -5 -158 -2 -161 2 -3 8 65 12 151 4 86 5 158 2
161 -2 3 -8 -65 -12 -151z"/>
<path d="M622 3558 c-11 -109 -42 -584 -40 -597 6 -27 50 542 46 579 -3 19 -6
28 -6 18z"/>
<path d="M425 3255 c-4 -86 -5 -158 -2 -161 2 -3 8 65 12 151 4 86 5 158 2
161 -2 3 -8 -65 -12 -151z"/>
<path d="M413 2995 c0 -44 2 -61 4 -37 2 23 2 59 0 80 -2 20 -4 1 -4 -43z"/>
<path d="M573 2875 c0 -33 2 -45 4 -27 2 18 2 45 0 60 -2 15 -4 0 -4 -33z"/>
<path d="M403 2835 c0 -44 2 -61 4 -37 2 23 2 59 0 80 -2 20 -4 1 -4 -43z"/>
<path d="M563 2760 c0 -30 2 -43 4 -27 2 15 2 39 0 55 -2 15 -4 2 -4 -28z"/>
<path d="M393 2655 c0 -44 2 -61 4 -37 2 23 2 59 0 80 -2 20 -4 1 -4 -43z"/>
<path d="M553 2640 c0 -30 2 -43 4 -27 2 15 2 39 0 55 -2 15 -4 2 -4 -28z"/>
<path d="M543 2525 c0 -33 2 -45 4 -27 2 18 2 45 0 60 -2 15 -4 0 -4 -33z"/>
<path d="M383 2495 c0 -44 2 -61 4 -37 2 23 2 59 0 80 -2 20 -4 1 -4 -43z"/>
<path d="M274 2310 c0 -85 2 -120 3 -77 2 42 2 112 0 155 -1 42 -3 7 -3 -78z"/>
<path d="M512 2205 c-62 -703 -92 -1092 -92 -1184 0 -70 16 -128 38 -140 9 -5
98 -11 197 -14 150 -5 164 -4 87 4 -206 21 -167 27 193 29 198 2 412 5 475 9
l115 6 -195 9 c-107 4 -336 9 -508 11 -311 3 -314 3 -338 26 -50 47 -54 117
-24 470 55 654 81 993 78 1012 -2 12 -13 -95 -26 -238z"/>
<path d="M373 2305 c0 -44 2 -61 4 -37 2 23 2 59 0 80 -2 20 -4 1 -4 -43z"/>
<path d="M363 2140 c0 -41 2 -58 4 -37 2 20 2 54 0 75 -2 20 -4 3 -4 -38z"/>
<path d="M264 1905 c0 -71 1 -99 3 -62 2 37 2 96 0 130 -2 34 -3 4 -3 -68z"/>
<path d="M353 1950 c0 -41 2 -58 4 -37 2 20 2 54 0 75 -2 20 -4 3 -4 -38z"/>
<path d="M343 1775 c0 -44 2 -61 4 -37 2 23 2 59 0 80 -2 20 -4 1 -4 -43z"/>
<path d="M333 1580 c0 -41 2 -58 4 -37 2 20 2 54 0 75 -2 20 -4 3 -4 -38z"/>
<path d="M323 1390 c0 -41 2 -58 4 -37 2 20 2 54 0 75 -2 20 -4 3 -4 -38z"/>
<path d="M313 1170 c0 -41 2 -58 4 -37 2 20 2 54 0 75 -2 20 -4 3 -4 -38z"/>
<path d="M12600 1061 l0 -39 -52 -7 c-29 -4 -152 -18 -273 -30 -121 -13 -197
-23 -170 -24 50 -1 244 13 362 25 57 6 64 4 88 -20 23 -23 26 -24 32 -8 3 9
17 29 31 44 22 24 23 29 12 62 -15 47 -30 46 -30 -3z"/>
<path d="M361 1074 c0 -11 3 -14 6 -6 3 7 2 16 -1 19 -3 4 -6 -2 -5 -13z"/>
<path d="M3155 1029 c-370 -12 -951 -52 -1150 -78 -104 -14 -1 -12 230 4 731
51 1086 64 1750 67 344 1 455 4 355 8 -190 10 -893 9 -1185 -1z"/>
<path d="M3450 969 c-506 -12 -1152 -47 -1570 -86 -105 -9 -340 -18 -585 -22
l-410 -6 310 -9 c171 -5 540 -6 820 -2 3249 42 3090 43 3465 -20 168 -28 351
-77 498 -132 56 -22 102 -38 102 -36 0 8 -96 59 -172 90 -305 129 -771 164
-1913 145 -674 -12 -1462 -13 -1510 -2 l-30 7 40 7 c50 9 505 34 860 47 149 5
510 10 804 10 294 0 532 2 530 4 -10 8 -926 12 -1239 5z"/>
<path d="M4751 956 c2 -2 83 -6 179 -8 100 -3 151 -2 120 2 -55 8 -307 13
-299 6z"/>
<path d="M11958 953 c18 -2 45 -2 60 0 15 2 0 4 -33 4 -33 0 -45 -2 -27 -4z"/>
<path d="M11843 943 c9 -2 23 -2 30 0 6 3 -1 5 -18 5 -16 0 -22 -2 -12 -5z"/>
<path d="M11648 933 c6 -2 18 -2 25 0 6 3 1 5 -13 5 -14 0 -19 -2 -12 -5z"/>
<path d="M11498 923 c12 -2 32 -2 45 0 12 2 2 4 -23 4 -25 0 -35 -2 -22 -4z"/>
<path d="M11095 909 c-567 -29 -788 -43 -1118 -69 -205 -17 -381 -32 -392 -34
-55 -9 79 -4 330 14 154 11 539 35 855 55 316 19 586 37 600 39 46 6 -114 3
-275 -5z"/>
<path d="M337 789 c7 -7 15 -10 18 -7 3 3 -2 9 -12 12 -14 6 -15 5 -6 -5z"/>
<path d="M9473 793 c15 -2 39 -2 55 0 15 2 2 4 -28 4 -30 0 -43 -2 -27 -4z"/>
<path d="M9358 783 c12 -2 32 -2 45 0 12 2 2 4 -23 4 -25 0 -35 -2 -22 -4z"/>
<path d="M9233 773 c9 -2 25 -2 35 0 9 3 1 5 -18 5 -19 0 -27 -2 -17 -5z"/>
<path d="M1143 713 c26 -2 68 -2 95 0 26 2 4 3 -48 3 -52 0 -74 -1 -47 -3z"/>
<path d="M8568 713 c7 -3 16 -2 19 1 4 3 -2 6 -13 5 -11 0 -14 -3 -6 -6z"/>
<path d="M8473 703 c9 -2 23 -2 30 0 6 3 -1 5 -18 5 -16 0 -22 -2 -12 -5z"/>
<path d="M8358 693 c12 -2 30 -2 40 0 9 3 -1 5 -23 4 -22 0 -30 -2 -17 -4z"/>
<path d="M8258 683 c12 -2 32 -2 45 0 12 2 2 4 -23 4 -25 0 -35 -2 -22 -4z"/>
<path d="M3518 673 c28 -2 76 -2 105 0 28 2 5 3 -53 3 -58 0 -81 -1 -52 -3z"/>
<path d="M4028 653 c7 -3 16 -2 19 1 4 3 -2 6 -13 5 -11 0 -14 -3 -6 -6z"/>
<path d="M11820 595 c184 -7 405 -13 490 -12 l155 0 -122 7 c-67 4 -287 10
-490 13 l-368 5 335 -13z"/>
<path d="M9263 474 c4 -4 318 -11 699 -15 610 -7 1015 -17 1463 -34 72 -3 126
-3 120 -1 -16 7 -616 35 -990 46 -380 11 -1302 14 -1292 4z"/>
<path d="M8928 463 c45 -2 119 -2 165 0 45 1 8 3 -83 3 -91 0 -128 -2 -82 -3z"/>
<path d="M8245 448 c-263 -7 -902 -53 -787 -57 24 0 256 10 515 24 260 14 555
29 657 34 182 8 183 8 50 8 -74 0 -270 -4 -435 -9z"/>
<path d="M11618 413 c17 -2 47 -2 65 0 17 2 3 4 -33 4 -36 0 -50 -2 -32 -4z"/>
<path d="M11773 403 c15 -2 39 -2 55 0 15 2 2 4 -28 4 -30 0 -43 -2 -27 -4z"/>
<path d="M11928 393 c12 -2 30 -2 40 0 9 3 -1 5 -23 4 -22 0 -30 -2 -17 -4z"/>
<path d="M7308 383 c17 -2 47 -2 65 0 17 2 3 4 -33 4 -36 0 -50 -2 -32 -4z"/>
<path d="M12048 383 c12 -2 32 -2 45 0 12 2 2 4 -23 4 -25 0 -35 -2 -22 -4z"/>
<path d="M12168 373 c12 -2 32 -2 45 0 12 2 2 4 -23 4 -25 0 -35 -2 -22 -4z"/>
</g>
</svg>
